<svg viewBox="-21 -21 682.66669 682.66669" xmlns="http://www.w3.org/2000/svg"><path d="m621.25 602.5h-6.011719v-350.238281h6.011719c10.351562 0 18.75-8.398438 18.75-18.75 0-10.363281-8.796875-19.136719-19.148438-19.136719h-207.039062v388.125h-37.5v-565h7.238281c10.351563 0 18.75-8.398438 18.75-18.75s-8.398437-18.75-18.75-18.75h-364.800781c-10.351562 0-18.75 8.398438-18.75 18.75s8.398438 18.75 18.75 18.75h7.5625v565h-7.5625c-10.351562 0-18.75 8.398438-18.75 18.75s8.398438 18.75 18.75 18.75h602.5c10.351562 0 18.75-8.398438 18.75-18.75s-8.398438-18.75-18.75-18.75zm-479.015625 0h-37.5v-81.988281c0-10.359375 8.390625-18.75 18.75-18.75 10.351563 0 18.75 8.390625 18.75 18.75zm0-156.4375c0 10.347656-8.398437 18.75-18.75 18.75-10.359375 0-18.75-8.402344-18.75-18.75v-31.535156c0-10.367188 8.390625-18.75 18.75-18.75 10.351563 0 18.75 8.382812 18.75 18.75zm.167969-106.847656c0 10.359375-8.402344 18.75-18.75 18.75-10.367188 0-18.75-8.390625-18.75-18.75v-31.539063c0-10.351562 8.382812-18.75 18.75-18.75 10.347656 0 18.75 8.398438 18.75 18.75zm0-106.089844c0 10.351562-8.402344 18.75-18.75 18.75-10.367188 0-18.75-8.398438-18.75-18.75v-31.539062c0-10.359376 8.382812-18.75 18.75-18.75 10.347656 0 18.75 8.390624 18.75 18.75zm.160156-106.851562c0 10.351562-8.402344 18.75-18.75 18.75-10.351562 0-18.75-8.398438-18.75-18.75v-31.539063c0-10.359375 8.398438-18.75 18.75-18.75 10.347656 0 18.75 8.390625 18.75 18.75zm77.171875 476.226562h-37.5v-81.988281c0-10.359375 8.390625-18.75 18.75-18.75 10.351563 0 18.75 8.390625 18.75 18.75zm0-156.4375c0 10.347656-8.398437 18.75-18.75 18.75-10.359375 0-18.75-8.402344-18.75-18.75v-31.535156c0-10.367188 8.390625-18.75 18.75-18.75 10.351563 0 18.75 8.382812 18.75 18.75zm.167969-106.847656c0 10.359375-8.402344 18.75-18.75 18.75-10.367188 0-18.75-8.390625-18.75-18.75v-31.539063c0-10.351562 8.382812-18.75 18.75-18.75 10.347656 0 18.75 8.398438 18.75 18.75zm0-106.089844c0 10.351562-8.402344 18.75-18.75 18.75-10.367188 0-18.75-8.398438-18.75-18.75v-31.539062c0-10.359376 8.382812-18.75 18.75-18.75 10.347656 0 18.75 8.390624 18.75 18.75zm.160156-106.851562c0 10.351562-8.402344 18.75-18.75 18.75-10.351562 0-18.75-8.398438-18.75-18.75v-31.539063c0-10.359375 8.398438-18.75 18.75-18.75 10.347656 0 18.75 8.390625 18.75 18.75zm77.171875 476.226562h-37.5v-81.988281c0-10.359375 8.390625-18.75 18.75-18.75 10.351563 0 18.75 8.390625 18.75 18.75zm0-156.4375c0 10.347656-8.398437 18.75-18.75 18.75-10.359375 0-18.75-8.402344-18.75-18.75v-31.535156c0-10.367188 8.390625-18.75 18.75-18.75 10.351563 0 18.75 8.382812 18.75 18.75zm.167969-106.847656c0 10.359375-8.402344 18.75-18.75 18.75-10.367188 0-18.75-8.390625-18.75-18.75v-31.539063c0-10.351562 8.382812-18.75 18.75-18.75 10.347656 0 18.75 8.398438 18.75 18.75zm0-106.089844c0 10.351562-8.402344 18.75-18.75 18.75-10.367188 0-18.75-8.398438-18.75-18.75v-31.539062c0-10.359376 8.382812-18.75 18.75-18.75 10.347656 0 18.75 8.390624 18.75 18.75zm.160156-106.851562c0 10.351562-8.402344 18.75-18.75 18.75-10.351562 0-18.75-8.398438-18.75-18.75v-31.539063c0-10.359375 8.398438-18.75 18.75-18.75 10.347656 0 18.75 8.390625 18.75 18.75zm159.386719 288.253906c0-10.367188 8.386719-18.75 18.75-18.75 10.351562 0 18.75 8.382812 18.75 18.75v31.535156c0 10.347656-8.398438 18.75-18.75 18.75-10.363281 0-18.75-8.402344-18.75-18.75zm37.578125 187.972656h-37.5v-74.085938c0-10.363281 8.398437-18.75 18.75-18.75 10.359375 0 18.75 8.386719 18.75 18.75zm.085937-263.285156c0 10.359375-8.402343 18.75-18.75 18.75-10.363281 0-18.75-8.390625-18.75-18.75v-31.539063c0-10.351562 8.386719-18.75 18.75-18.75 10.347657 0 18.75 8.398438 18.75 18.75zm39.835938 75.3125c0-10.367188 8.386719-18.75 18.75-18.75 10.351562 0 18.75 8.382812 18.75 18.75v31.535156c0 10.347656-8.398438 18.75-18.75 18.75-10.363281 0-18.75-8.402344-18.75-18.75zm37.578125 187.972656h-37.5v-74.085938c0-10.363281 8.398437-18.75 18.75-18.75 10.359375 0 18.75 8.386719 18.75 18.75zm.085937-263.285156c0 10.359375-8.402343 18.75-18.75 18.75-10.363281 0-18.75-8.390625-18.75-18.75v-31.539063c0-10.351562 8.386719-18.75 18.75-18.75 10.347657 0 18.75 8.398438 18.75 18.75zm0 0" /></svg>