<svg xmlns="http://www.w3.org/2000/svg" viewBox="0 0 512 512"><path d="M27.8 299.1c0.2 0 4-0.4 4.2-0.5l449.7 0.2c0.2 0 2.4 0.3 2.6 0.3 0.3 0 0.6 0 0.8 0 0.1 0 0.3 0 0.4 0 5.9 0 10.7-4.8 10.7-10.7 0-2.2-0.6-4.1-1.7-5.8l-25.1-81.6V74.7c0-29.4-23.9-53.3-53.3-53.3H96c-29.4 0-53.3 23.9-53.3 53.3v126.4l-25.9 84.3c-1 3.4-0.4 7.1 1.9 9.8C20.8 297.9 24.2 299.4 27.8 299.1zM74.7 192h18.3l9.9-39.8C106.5 138 119.3 128 134 128h68.7c17.6 0 32 14.4 32 32v32h42.7v-32c0-17.6 14.4-32 32-32h68.7c14.7 0 27.5 10 31.1 24.2L419 192h18.3c5.9 0 10.7 4.8 10.7 10.7s-4.8 10.7-10.7 10.7h-18.7c-1.1 3.2-2.6 6.3-4.8 9 -6.1 7.8-15.3 12.3-25.2 12.3h-79.3c-13.9 0-25.6-8.9-30-21.3h-46.6c-4.4 12.4-16.1 21.3-30 21.3h-79.3c-9.9 0-19.1-4.5-25.2-12.3 -2.2-2.8-3.6-5.8-4.8-9H74.7c-5.9 0-10.7-4.8-10.7-10.7S68.8 192 74.7 192z" /><path d="M480 320H32c-17.6 0-32 14.4-32 32v128c0 5.9 4.8 10.7 10.7 10.7h42.7C59.2 490.7 64 485.9 64 480v-32h384v32c0 5.9 4.8 10.7 10.7 10.7h42.7c5.9 0 10.7-4.8 10.7-10.7V352C512 334.4 497.6 320 480 320z" /></svg>