<svg viewBox="0 0 55 56" xmlns="http://www.w3.org/2000/svg"><g><g><path id="Shape" d="m21 2c.5522847 0 1-.44771525 1-1s-.4477153-1-1-1h-20c-.55228475 0-1 .44771525-1 1s.44771525 1 1 1z" /><path id="Shape" d="m19 27v-23h-16v21c.00330612 2.7600532 2.23994685 4.9966939 5 5h11zm-12-4c0 .5522847-.44771525 1-1 1s-1-.4477153-1-1v-10c0-.5522847.44771525-1 1-1s1 .4477153 1 1zm0-14c0 .55228475-.44771525 1-1 1s-1-.44771525-1-1v-2c0-.55228475.44771525-1 1-1s1 .44771525 1 1z" /><path id="Shape" d="m54 28h-33v2h33c.5522847 0 1-.4477153 1-1s-.4477153-1-1-1z" /><path id="Shape" d="m11 32v24h16v-5c.0033061-2.7600532 2.2399468-4.9966939 5-5h8c6.0721626-.0071635 10.9928365-4.9278374 11-11v-3z" /></g></g></svg>